<?xml version="1.0" standalone="no"?>
<!DOCTYPE svg PUBLIC "-//W3C//DTD SVG 20010904//EN"
 "http://www.w3.org/TR/2001/REC-SVG-20010904/DTD/svg10.dtd">
<svg version="1.0" xmlns="http://www.w3.org/2000/svg"
 width="30" height="30" viewBox="0 0 736.000000 682.000000"
 preserveAspectRatio="xMidYMid meet">

<g transform="translate(0.000000,682.000000) scale(0.100000,-0.100000)"
fill="#fff" stroke="none">
<path d="M344 6466 c-62 -28 -98 -107 -74 -165 28 -69 45 -76 351 -146 304
-70 529 -119 594 -130 70 -12 194 -65 272 -118 64 -42 79 -58 100 -103 30 -67
81 -267 87 -342 3 -32 23 -156 45 -277 47 -261 240 -1319 415 -2275 69 -377
130 -705 135 -730 14 -67 86 -307 111 -370 62 -157 146 -256 267 -313 l68 -32
1680 -7 c924 -5 1698 -6 1721 -3 46 6 100 51 110 92 9 33 -2 90 -21 120 -35
53 43 51 -1725 55 l-1645 4 -52 23 c-132 58 -207 213 -272 563 -17 92 -31 176
-31 187 0 19 15 20 1718 24 1860 5 1768 2 1917 58 72 27 169 118 209 196 14
28 85 211 157 405 430 1155 563 1510 586 1568 30 76 41 181 24 233 -26 79
-140 147 -276 166 -35 5 -79 15 -97 21 -25 9 -577 10 -2378 3 -1290 -5 -2346
-8 -2348 -7 -1 1 -16 72 -32 158 -17 87 -32 161 -34 164 -2 4 -11 50 -20 102
-25 144 -52 236 -101 336 -35 73 -57 103 -104 145 -105 95 -250 167 -421 209
-118 29 -827 187 -870 194 -21 4 -48 0 -66 -8z m3934 -2612 l2 -1051 -152 -6
c-83 -4 -269 -7 -413 -7 l-263 0 -6 43 c-3 23 -38 344 -76 712 -39 369 -86
817 -105 996 -19 179 -35 333 -35 342 0 15 39 17 468 20 257 1 492 3 522 2
l55 0 3 -1051z m1178 1014 c-5 -37 -96 -899 -142 -1338 -8 -80 -28 -270 -44
-423 -17 -152 -30 -284 -30 -292 0 -13 -51 -15 -385 -15 l-385 0 0 1048 c0
577 3 1052 7 1055 3 4 227 7 496 7 l489 0 -6 -42z m1299 17 c35 -17 40 -25 43
-58 2 -27 -4 -51 -22 -81 -14 -24 -23 -46 -20 -49 6 -5 -65 -198 -497 -1355
-86 -233 -169 -441 -184 -461 -14 -21 -38 -44 -52 -50 -45 -20 -177 -31 -390
-31 -201 0 -203 0 -203 22 0 11 7 82 15 157 8 75 35 330 60 566 25 237 56 536
70 665 14 129 34 323 45 430 11 107 23 212 26 233 l6 38 531 -3 c509 -3 534
-4 572 -23z m-3715 6 c0 -9 3 -42 74 -711 25 -234 54 -510 65 -615 11 -104 34
-318 51 -475 16 -156 30 -288 30 -292 0 -4 -188 -8 -418 -8 l-418 0 -128 703
c-70 386 -157 858 -192 1049 -35 190 -64 349 -64 352 0 3 225 6 500 6 287 0
500 -4 500 -9z"/>
<path d="M3130 1264 c-119 -32 -208 -107 -264 -224 -29 -61 -31 -72 -31 -175
0 -104 2 -114 32 -176 40 -80 120 -159 200 -197 52 -24 69 -27 168 -27 105 0
113 1 174 33 247 130 305 449 117 650 -103 110 -253 154 -396 116z m176 -233
c96 -44 134 -164 80 -256 -33 -55 -90 -87 -156 -87 -185 0 -245 258 -78 341
53 26 100 26 154 2z"/>
<path d="M5279 1257 c-37 -13 -86 -36 -109 -52 -255 -177 -221 -576 60 -709
60 -29 73 -31 170 -31 97 0 110 2 170 31 171 82 264 270 226 453 -34 161 -142
274 -301 316 -81 21 -138 19 -216 -8z m188 -222 c50 -21 72 -42 94 -90 50
-108 -7 -223 -125 -256 -48 -13 -106 3 -153 44 -61 54 -79 129 -48 204 21 50
42 72 90 94 49 23 94 24 142 4z"/>
</g>
</svg>
